# xmcd CD database file
#
# Track frame offsets:
#	150
#	992
#	17779
#	38036
#	54220
#	70254
#	85948
#	98264
#	120693
#	136454
#	146629
#	176496
#
# Disc length: 2364 seconds
#
# Revision: 0
# Processed by: cddbd v1.5.1PL2 Copyright (c) Steve Scherf et al.
# Submitted via: CDex 1.51
#
DISCID=8f093a0c
DTITLE=Dave Robbins Trombone Band The - Trombones Forever, a reunion concert
DYEAR=2001
DGENRE=Jazz
TTITLE0=A Smooth One (introduction)
TTITLE1=Check To Cheek
TTITLE2=Love For Sale
TTITLE3=Night Life
TTITLE4=Robbins Nest
TTITLE5=For You
TTITLE6=London by Night
TTITLE7=Skylark
TTITLE8=Just In Time
TTITLE9=I Love You (and don't you forget it!)
TTITLE10=Tuxedo Junction
TTITLE11=A Smooth One (set chaser)
EXTD=YEAR: 2001
EXTT0=
EXTT1=
EXTT2=
EXTT3=
EXTT4=
EXTT5=
EXTT6=
EXTT7=
EXTT8=
EXTT9=
EXTT10=
EXTT11=
PLAYORDER=
